<?xml version="1.0" standalone="no"?><!DOCTYPE svg PUBLIC "-//W3C//DTD SVG 1.1//EN" "http://www.w3.org/Graphics/SVG/1.1/DTD/svg11.dtd" >
<svg xmlns="http://www.w3.org/2000/svg">
<defs>
    <font id="remixicon" horiz-adv-x="1200">
    <font-face font-family="remixicon"
      units-per-em="1200" ascent="1020"
      descent="180" />
    <missing-glyph horiz-adv-x="0" /><glyph glyph-name="arrow-down-s-line"
            unicode="&#xEA4E;"
            horiz-adv-x="1250" d="M624.99775 366.9695L872.48775 614.4555L943.19775 543.745L624.99775 225.5445L306.80225 543.745L377.51275 614.4555L624.99775 366.9695z" /><glyph glyph-name="arrow-left-line"
            unicode="&#xEA60;"
            horiz-adv-x="1250" d="M416.4215 469.997H1025V369.997H416.4215L684.62 101.802L613.91 31.092L225 419.997L613.91 808.9079999999999L684.62 738.1975L416.4215 469.997z" /><glyph glyph-name="arrow-right-line"
            unicode="&#xEA6C;"
            horiz-adv-x="1250" d="M833.58 469.997L565.38 738.1975L636.09 808.9079999999999L1025 419.997L636.09 31.092L565.38 101.802L833.58 369.997H225V469.997H833.58z" /><glyph glyph-name="calendar-fill"
            unicode="&#xEB26;"
            horiz-adv-x="1250" d="M125 420H1125V-30C1125 -57.615 1102.615 -80 1075 -80H175C147.386 -80 125 -57.615 125 -30V420zM875 820H1075C1102.615 820 1125 797.614 1125 770V520H125V770C125 797.614 147.386 820 175 820H375V920H475V820H775V920H875V820z" /><glyph glyph-name="message-2-fill"
            unicode="&#xEF43;"
            horiz-adv-x="1250" d="M347.7275 107.5L125 -67.5V857.5C125 885.114 147.386 907.5 175 907.5H1075C1102.615 907.5 1125 885.114 1125 857.5V157.5C1125 129.8850000000001 1102.615 107.5 1075 107.5H347.7275zM375 557.5V457.5H475V557.5H375zM575 557.5V457.5H675V557.5H575zM775 557.5V457.5H875V557.5H775z" /><glyph glyph-name="folder-open-fill"
            unicode="&#xED6F;"
            horiz-adv-x="1250" d="M162.5 -30C134.886 -30 112.5 -7.615 112.5 20V820C112.5 847.614 134.886 870 162.5 870H533.2099999999999L633.2099999999999 770H1012.5C1040.115 770 1062.5 747.614 1062.5 720V570H212.5V70.2000000000001L312.5 470H1137.5L1021.97 7.875C1016.405 -14.385 996.405 -30 973.46 -30H162.5z" /><glyph glyph-name="history-line"
            unicode="&#xEE17;"
            horiz-adv-x="1250" d="M625 920C901.14 920 1125 696.1424999999999 1125 420C1125 143.86 901.14 -80 625 -80C348.8575 -80 125 143.86 125 420H225C225 199.085 404.086 20 625 20C845.915 20 1025 199.085 1025 420C1025 640.914 845.915 820 625 820C487.511 820 366.2235 750.633 294.2255 644.988L425 645V545H125V845H225L224.9945 720.0409999999999C316.2170000000001 841.4625 461.4365 920 625 920zM675 670L674.99 440.75L837.13 278.5800000000001L766.42 207.87L574.99 399.35L575 670H675z" /><glyph glyph-name="translate"
            unicode="&#xF227;"
            horiz-adv-x="1250" d="M265 245V145C265 92.28 305.794 49.09 357.537 45.2750000000001L365 45H515V-55H365C254.543 -55 165 34.5450000000001 165 145V245H265zM915 495L1135 -55H1027.25L967.2 95H762.7L702.75 -55H595.0500000000001L815 495H915zM865 350.74L802.65 195H927.25L865 350.74zM415 895V795H615V445H415V295H315V445H115V795H315V895H415zM865 845C975.455 845 1065 755.457 1065 645V545H965V645C965 700.2284999999999 920.23 745 865 745H715V845H865zM315 695H215V545H315V695zM515 695H415V545H515V695z" /><glyph glyph-name="reply-fill"
            unicode="&#xF079;"
            horiz-adv-x="1250" d="M625 20L125 420L625 820V570C901.14 570 1125 346.14 1125 70C1125 56.355 1124.455 42.835 1123.38 29.4649999999999C1048.025 172.49 897.8999999999999 270 725 270H625V20z" /><glyph glyph-name="price-tag-3-fill"
            unicode="&#xF022;"
            horiz-adv-x="1250" d="M579.2889374999999 939.975L1074.2639374999999 869.2645L1144.9739375 374.2875000000001L685.3539374999999 -85.3275C665.8289374999999 -104.8575 634.1739374999999 -104.8575 614.6439375 -85.3275L119.6709375 409.6425000000001C100.1444375 429.1725 100.1444375 460.8275 119.6709375 480.3575L579.2889374999999 939.975zM720.7139374999999 515.7125000000001C759.7639374999999 476.6575 823.0789374999999 476.6575 862.1339374999999 515.7125000000001C901.1839374999998 554.7635 901.1839374999998 618.0799999999999 862.1339374999999 657.1324999999999C823.0789374999999 696.1845000000001 759.7639374999999 696.1845000000001 720.7139374999999 657.1324999999999C681.6589374999999 618.0799999999999 681.6589374999999 554.7635 720.7139374999999 515.7125000000001z" /><glyph glyph-name="delete-bin-fill"
            unicode="&#xEC29;"
            horiz-adv-x="1250" d="M875 720H1125V620H1025V-30C1025 -57.615 1002.6149999999998 -80 975 -80H275C247.386 -80 225 -57.615 225 -30V620H125V720H375V870C375 897.614 397.386 920 425 920H825C852.6149999999999 920 875 897.614 875 870V720zM475 470V170H575V470H475zM675 470V170H775V470H675zM475 820V720H775V820H475z" /><glyph glyph-name="user-3-fill"
            unicode="&#xF255;"
            horiz-adv-x="1250" d="M1025 -105H225V-5C225 133.0699999999999 336.929 245 475 245H775C913.07 245 1025 133.0699999999999 1025 -5V-105zM625 345C459.3145 345 325 479.3149999999999 325 645C325 810.6855 459.3145 945 625 945C790.6850000000001 945 925 810.6855 925 645C925 479.3149999999999 790.6850000000001 345 625 345z" /><glyph glyph-name="heart-fill"
            unicode="&#xEE0E;"
            horiz-adv-x="1250" d="M625.0405801961482 805.6984828921727C742.4905801961482 911.1249828921729 923.9905801961482 907.6249828921729 1037.1205801961482 794.2569828921728C1150.2555801961482 680.8889828921729 1154.1405801961482 500.2749828921728 1048.9205801961484 382.4749828921728L624.9855801961482 -42.1250171078272L201.0595801961483 382.4749828921728C95.8430801961483 500.2749828921728 99.7760801961483 681.1744828921728 212.8585801961483 794.2569828921728C326.0690801961482 907.4674828921728 507.2500801961482 911.2814828921728 625.0405801961482 805.6984828921727z" /><glyph glyph-name="copyright-line"
            unicode="&#xEBE2;"
            horiz-adv-x="1250" d="M839.385 548.6134999999999C795.65 621.3245 715.975 670 625 670C486.9995 670 375 558.0005 375 420C375 282 486.9995 170 625 170C715.975 170 795.65 218.6750000000001 839.385 291.385L753.645 342.79C727.415 299.17 679.635 270 625 270C542.125 270 475 337.125 475 420C475 502.875 542.125 570 625 570C679.65 570 727.4549999999999 540.807 753.675 497.1600000000001L839.385 548.6134999999999zM1125 420C1125 696.001 901 920 625 920C348.999 920 125 696.001 125 420C125 144 348.999 -80 625 -80C901 -80 1125 144 1125 420zM225 420C225 641.002 403.998 820 625 820C846.0000000000001 820 1025 641.002 1025 420C1025 198.9999999999999 846.0000000000001 20 625 20C403.998 20 225 198.9999999999999 225 420z" /><glyph glyph-name="creative-commons-by-line"
            unicode="&#xEBF2;"
            horiz-adv-x="1250" d="M725 670C725 614.7695000000001 680.23 570 625 570C569.77 570 525 614.7695000000001 525 670C525 725.2305 569.77 770 625 770C680.23 770 725 725.2305 725 670zM775 470C775 497.6099999999999 752.6099999999999 520 725 520H525C497.3874999999999 520 475 497.6099999999999 475 470V270H550V70H700V270H775V470zM625 920C348.8585 920 125 696.1415 125 420C125 143.86 348.8585 -80 625 -80C901.14 -80 1125 143.86 1125 420C1125 696.1415 901.14 920 625 920zM225 420C225 640.9165 404.0835 820 625 820C845.915 820 1025 640.9165 1025 420C1025 199.085 845.915 20 625 20C404.0835 20 225 199.085 225 420z" /><glyph glyph-name="creative-commons-nc-line"
            unicode="&#xEBF6;"
            horiz-adv-x="1250" d="M625 920C348.8585 920 125 696.1415 125 420C125 143.86 348.8585 -80 625 -80C901.14 -80 1125 143.86 1125 420C1125 696.1415 901.14 920 625 920zM379.718 735.991C447.455 788.646 532.56 820 625 820C845.915 820 1025 640.9165 1025 420C1025 327.56 993.645 242.455 940.99 174.72L833.25 282.4550000000001C843.905 300.855 850 322.2150000000001 850 345C850 414.035 794.035 470 725 470H525C511.194 470 500 481.1950000000001 500 495C500 508.8049999999999 511.194 520 525 520H800V620H675V720H575V620H525C515.918 620 507.0555 619.0355 498.523 617.1925L379.718 735.991zM309.009 665.2819999999999L416.748 557.5425C406.0975000000001 539.1465000000001 400 517.7850000000001 400 495C400 425.9650000000001 455.963 370 525 370H725C738.805 370 750 358.805 750 345C750 331.1950000000001 738.805 320 725 320H450V220H575V120H675V220H725C734.09 220 742.95 220.9649999999999 751.485 222.8100000000001L870.28 104.01C802.5450000000001 51.3549999999999 717.44 20 625 20C404.0835 20 225 199.085 225 420C225 512.44 256.3540000000001 597.5450000000001 309.009 665.2819999999999z" /><glyph glyph-name="creative-commons-nd-line"
            unicode="&#xEBF8;"
            horiz-adv-x="1250" d="M425 570H825V470H425V570zM425 270V370H825V270H425zM125 420C125 696.1415 348.8585 920 625 920C901.14 920 1125 696.1415 1125 420C1125 143.86 901.14 -80 625 -80C348.8585 -80 125 143.86 125 420zM625 820C404.0835 820 225 640.9165 225 420C225 199.085 404.0835 20 625 20C845.915 20 1025 199.085 1025 420C1025 640.9165 845.915 820 625 820z" /><glyph glyph-name="creative-commons-sa-line"
            unicode="&#xEBFA;"
            horiz-adv-x="1250" d="M875 420C875 585.6859999999999 763.075 720 625 720C516.1374999999999 720 423.529 636.5039999999999 389.215 519.97L325 520L450 370L575 520L495.0624999999999 519.99C520.996 579.7715000000001 569.475 620 625 620C707.845 620 775 530.4555 775 420C775 309.5450000000001 707.845 220 625 220C569.495 220 521.0325 260.2000000000001 495.093 319.9450000000001L389.2335 319.9700000000001C423.5655 203.465 516.156 120 625 120C763.075 120 875 254.315 875 420zM625 920C486.9935 920 361.9325 863.933 271.5025 773.4975000000001C181.067 683.0675 125 558.0065 125 420C125 281.995 181.067 156.9300000000001 271.5025 66.505C361.9325 -23.9349999999999 486.9935 -80 625 -80C763.005 -80 888.0699999999999 -23.9349999999999 978.495 66.505C1068.935 156.9300000000001 1125 281.995 1125 420C1125 558.0065 1068.935 683.0675 978.495 773.4975000000001C888.0699999999999 863.933 763.005 920 625 920zM342.212 702.788C414.6790000000001 775.255 514.612 820 625 820C735.39 820 835.3199999999999 775.255 907.79 702.788C980.255 630.3209999999999 1025 530.388 1025 420C1025 309.61 980.255 209.6800000000001 907.79 137.21C835.3199999999999 64.745 735.39 20 625 20C514.612 20 414.6790000000001 64.745 342.212 137.21C269.745 209.6800000000001 225 309.61 225 420C225 530.388 269.745 630.3209999999999 342.212 702.788z" /><glyph glyph-name="creative-commons-zero-line"
            unicode="&#xEBFC;"
            horiz-adv-x="1250" d="M875 420C875 585.6859999999999 763.075 720 625 720C486.9265 720 375 585.6859999999999 375 420C375 254.315 486.9265 120 625 120C763.075 120 875 254.315 875 420zM563.145 237.745L741.265 546.3795C762.355 511.9299999999999 775 467.9350000000001 775 420C775 309.5450000000001 707.845 220 625 220C602.9499999999999 220 582.005 226.35 563.145 237.745zM475 420C475 530.4555 542.155 620 625 620C647.0500000000001 620 667.995 613.6524999999999 686.855 602.2570000000001L508.734 293.62C487.6464999999999 328.0700000000001 475 372.065 475 420zM625 920C486.9935 920 361.9325 863.933 271.5025 773.4975000000001C181.067 683.0675 125 558.0065 125 420C125 281.995 181.067 156.9300000000001 271.5025 66.505C361.9325 -23.9349999999999 486.9935 -80 625 -80C763.005 -80 888.0699999999999 -23.9349999999999 978.495 66.505C1068.935 156.9300000000001 1125 281.995 1125 420C1125 558.0065 1068.935 683.0675 978.495 773.4975000000001C888.0699999999999 863.933 763.005 920 625 920zM342.212 702.788C414.6790000000001 775.255 514.612 820 625 820C735.39 820 835.3199999999999 775.255 907.79 702.788C980.255 630.3209999999999 1025 530.388 1025 420C1025 309.61 980.255 209.6800000000001 907.79 137.21C835.3199999999999 64.745 735.39 20 625 20C514.612 20 414.6790000000001 64.745 342.212 137.21C269.745 209.6800000000001 225 309.61 225 420C225 530.388 269.745 630.3209999999999 342.212 702.788z" /><glyph glyph-name="earth-line"
            unicode="&#xEC7A;"
            horiz-adv-x="1250" d="M336.7545 697.3355C267.5505 625.426 225 527.682 225 420C225 199.085 404.086 20 625 20C679.04 20 730.5799999999999 30.715 777.605 50.1399999999999C783.355 87.6650000000001 770.74 123.67 765.58 136.2699999999999C754.1 164.2500000000001 716.2049999999999 212.0899999999999 652.9449999999999 278.4600000000001C636.06 296.2100000000001 637.145 309.8250000000001 643.18 350.2850000000001L643.875 354.855C647.975 382.5700000000001 654.855 398.9550000000001 748.11 413.76C795.485 421.27 807.9449999999999 402.3349999999999 825.215 376.115C827.125 373.2100000000001 829.035 370.36 830.9900000000001 367.505C847.395 343.515 859.55 338.03 877.91 329.68C886.135 325.9500000000001 896.4000000000001 321.245 910.155 313.4300000000001C942.755 294.8000000000001 942.755 273.765 942.755 227.64V222.41C942.755 202.8300000000001 940.84 185.64 937.83 170.7049999999999C992.39 239.0750000000001 1025 325.73 1025 420C1025 584.9555 925.15 726.59 782.595 787.759C754.935 769.0935 716.99 742.637 703.75 724.5C696.98 715.231 687.4100000000001 667.9169999999999 656.285 664.012C648.13 662.9884999999999 637.19 663.7055 625.6 664.4515C594.525 666.471 552.01 669.197 538.4000000000001 632.2525C529.76 608.8399999999999 528.24 545.2774999999999 556.195 512.2850000000001C560.67 507.015 561.5350000000001 497.265 558.495 486.3249999999999C554.5 471.9599999999999 546.43 463.22 543.915 461.4150000000001C539.095 464.1849999999999 529.48 475.345 522.969 482.9400000000001C507.277 501.175 487.7025 523.8834999999999 462.3985 530.912C453.1975 533.4585 443.0830000000001 535.5665 433.274 537.632C405.82 543.3865 374.7215 549.933 367.496 565.349C362.221 576.64 362.2440000000001 592.1895 362.2645 608.618C362.2645 629.44 362.2645 652.9855 352.0645 675.8720000000001C348.123 684.7295 342.8445 691.777 336.7545 697.3355zM625 -80C348.8575 -80 125 143.86 125 420C125 696.1424999999999 348.8575 920 625 920C901.14 920 1125 696.1424999999999 1125 420C1125 143.86 901.14 -80 625 -80z" /><glyph glyph-name="camera-line"
            unicode="&#xEB31;"
            horiz-adv-x="1250" d="M516.4215 770L416.4215 670H225V70H1025V670H833.58L733.58 770H516.4215zM475 870H775L875 770H1075C1102.615 770 1125 747.614 1125 720V20C1125 -7.615 1102.615 -30 1075 -30H175C147.386 -30 125 -7.615 125 20V720C125 747.614 147.386 770 175 770H375L475 870zM625 120C473.1215 120 350 243.12 350 395C350 546.8785 473.1215 670 625 670C776.88 670 900 546.8785 900 395C900 243.12 776.88 120 625 120zM625 220C721.65 220 800 298.35 800 395C800 491.65 721.65 570 625 570C528.35 570 450 491.65 450 395C450 298.35 528.35 220 625 220z" /><glyph glyph-name="pencil-line"
            unicode="&#xEFE0;"
            horiz-adv-x="1250" d="M812.1306249999999 536.422L741.420625 607.1324999999999L275.7356249999999 141.4455000000001V70.7355H346.4461249999999L812.1306249999999 536.422zM882.8406249999999 607.1324999999999L953.550625 677.8430000000001L882.8406249999999 748.554L812.1306249999999 677.8430000000001L882.8406249999999 607.1324999999999zM387.8676249999999 -29.2645H175.7356249999999V182.8705L847.4856249999998 854.62C867.015625 874.146 898.670625 874.146 918.195625 854.62L1059.620625 713.1985C1079.145625 693.6725 1079.145625 662.014 1059.620625 642.488L387.8676249999999 -29.2645z" /><glyph glyph-name="camera-lens-line"
            unicode="&#xEB30;"
            horiz-adv-x="1250" d="M517.9010000000001 34.5L625 220H278.5130000000001C330.346 130.395 415.94 62.765 517.9010000000001 34.5zM237.602 320H451.795L278.5515000000001 620.0665C244.4935 561.217 225 492.885 225 420C225 385.4700000000001 229.3755 351.9600000000001 237.602 320zM344.748 705.4105L451.795 520L625 820C515.855 820 416.92 776.2855 344.748 705.4105zM732.1 805.501L625 620H971.485C919.655 709.6044999999999 834.0600000000001 777.2355 732.1 805.501zM1012.4 520H798.205L971.45 219.935C1005.505 278.7850000000001 1025 347.115 1025 420C1025 454.53 1020.6250000000002 488.04 1012.4 520zM905.25 134.5899999999999L798.205 320L625 20C734.145 20 833.08 63.715 905.25 134.5899999999999zM625 -80C348.8575 -80 125 143.86 125 420C125 696.1424999999999 348.8575 920 625 920C901.14 920 1125 696.1424999999999 1125 420C1125 143.86 901.14 -80 625 -80zM682.735 520H567.265L509.53 420L567.265 320H682.735L740.47 420L682.735 520z" /><glyph glyph-name="timer-line"
            unicode="&#xF215;"
            horiz-adv-x="1250" d="M905.885 696.595L978.555 769.264L1049.2649999999999 698.5535L976.595 625.8845C1038.1750000000002 548.9005 1075 451.25 1075 345C1075 96.4699999999999 873.5300000000001 -105 625 -105C376.472 -105 175 96.4699999999999 175 345C175 593.528 376.472 795 625 795C731.25 795 828.9 758.1765 905.885 696.595zM625 -5C818.3 -5 975 151.7000000000001 975 345C975 538.2995000000001 818.3 695 625 695C431.7005 695 275 538.2995000000001 275 345C275 151.7000000000001 431.7005 -5 625 -5zM575 595H675V295H575V595zM425 945H825V845H425V945z" /><glyph glyph-name="flashlight-line"
            unicode="&#xED3D;"
            horiz-adv-x="1250" d="M650 570H1050L550 -180V270H200L650 1020V570zM550 470V658.9685L376.619 370H650V150.28L863.1500000000001 470H550z" /><glyph glyph-name="speed-up-line"
            unicode="&#xF371;"
            horiz-adv-x="1250" d="M1025 346.7775000000001C1025 236.3225000000001 980.23 136.3225000000001 907.845 63.9325L978.555 -6.7775C1069.035 83.7075000000001 1125 208.7075 1125 346.7775000000001C1125 622.92 901.14 846.7775 625 846.7775C348.8575 846.7775 125 622.92 125 346.7775000000001C125 208.7075 180.9645 83.7075000000001 271.4465 -6.7775L342.1575 63.9325C269.7715 136.3225000000001 225 236.3225000000001 225 346.7775000000001C225 567.6915 404.086 746.7775 625 746.7775C845.915 746.7775 1025 567.6915 1025 346.7775000000001zM789.65 582.129L564.65 357.1275000000001L635.36 286.4175L860.36 511.4185000000001L789.65 582.129z" /><glyph glyph-name="focus-3-line"
            unicode="&#xED4C;"
            horiz-adv-x="1250" d="M675 970L675.05 816.8995C855.9599999999999 794.3175 999.345 650.9185 1021.905 470L1175 470V370L1021.9 369.9500000000001C999.32 189.055 855.945 45.6800000000001 675.05 23.1L675 -130H575L575 23.095C394.0815 45.6550000000001 250.6825 189.0400000000001 228.1005 369.9500000000001L75 370V470L228.0945 470C250.656 650.9355 394.0645 794.344 575 816.9055L575 970H675zM625 720C459.3145 720 325 585.6855 325 420C325 254.315 459.3145 120 625 120C790.6850000000001 120 925 254.315 925 420C925 585.6855 790.6850000000001 720 625 720zM625 520C680.23 520 725 475.23 725 420C725 364.77 680.23 320 625 320C569.77 320 525 364.77 525 420C525 475.23 569.77 520 625 520z" /><glyph glyph-name="gallery-fill"
            unicode="&#xEDA4;"
            horiz-adv-x="1250" d="M895.4499999999999 20C856.65 139.9400000000001 781.615 214.2650000000001 682.17 300.105C776.1899999999999 375.145 895.355 420 1025 420V820H1075.4099999999999C1102.8 820 1125 797.7525 1125 770.33V-30.3299999999999C1125 -57.76 1102.235 -80 1075.4099999999999 -80H174.59C147.2025 -80 125 -57.7549999999999 125 -30.3299999999999V770.33C125 797.762 147.7655 820 174.59 820H325V920H425V720H225V370C486.0075 370 708.0899999999999 246.92 790.635 20H895.4499999999999zM925 920V720H525V820H825V920H925zM850 470C808.58 470 775 503.5785 775 545C775 586.4214999999999 808.58 620 850 620C891.42 620 925 586.4214999999999 925 545C925 503.5785 891.42 470 850 470z" /><glyph glyph-name="home-2-fill"
            unicode="&#xEE18;"
            horiz-adv-x="1250" d="M1025 -21.2140625000001C1025 -48.8290625000001 1002.6149999999998 -71.2140625000001 975 -71.2140625000001H275C247.386 -71.2140625000001 225 -48.8290625000001 225 -21.2140625000001V428.7859375L75 428.7859375L591.365 898.2109374999999C610.4350000000001 915.5484375 639.5649999999999 915.5484375 658.635 898.2109374999999L1175 428.7859375L1025 428.7859375V-21.2140625000001z" /><glyph glyph-name="file-text-fill"
            unicode="&#xED0E;"
            horiz-adv-x="1250" d="M1075 570V-29.625C1075 -57.5550000000001 1052.76 -80 1025.33 -80H224.67C197.2475 -80 175 -57.7999999999999 175 -30.4099999999999V870.41C175 897.2345 197.347 920 224.913 920H725V620C725 592.386 747.385 570 775 570H1075zM1075 670H825V919.841L1075 670zM425 670V570H575V670H425zM425 470V370H825V470H425zM425 270V170H825V270H425z" /><glyph glyph-name="pages-fill"
            unicode="&#xEFBE;"
            horiz-adv-x="1250" d="M1025 -80H225C197.386 -80 175 -57.615 175 -30V620H1075V-30C1075 -57.615 1052.615 -80 1025 -80zM1075 720H175V870C175 897.614 197.386 920 225 920H1025C1052.615 920 1075 897.614 1075 870V720zM375 470V270H575V470H375zM375 170V70H875V170H375zM675 420V320H875V420H675z" /><glyph glyph-name="article-fill"
            unicode="&#xEA7D;"
            horiz-adv-x="1250" d="M1025 -80H225C197.386 -80 175 -57.615 175 -30V870C175 897.614 197.386 920 225 920H1025C1052.615 920 1075 897.614 1075 870V-30C1075 -57.615 1052.615 -80 1025 -80zM375 720V520H575V720H375zM375 420V320H875V420H375zM375 220V120H875V220H375zM675 670V570H875V670H675z" /><glyph glyph-name="contract-left-line"
            unicode="&#xF2FD;"
            horiz-adv-x="1250" d="M753.5407499999999 773.55425L824.2507499999999 702.8432500000001L591.41075 470.00075L1050.00075 469.99575L1050.00075 369.9957500000001L591.41075 370.0007500000001L824.2507499999999 137.15575L753.5407499999999 66.44575L399.98875 420.0007500000001L753.5407499999999 773.55425zM199.99925 70.00575L199.99925 770.00325H299.99925L299.99925 70.00575H199.99925z" /><glyph glyph-name="contract-right-line"
            unicode="&#xF301;"
            horiz-adv-x="1250" d="M658.59575 470.00075L425.74925 702.8432500000001L496.4597499999999 773.55425L850.01575 420.0007500000001L496.4597499999999 66.44575L425.74925 137.15575L658.5907500000001 370.0007500000001L200.00075 369.9957500000001L199.99925 469.99575L658.59575 470.00075zM950.00075 70.00575L950.00075 770.00325H1050.00075L1050.00075 70.00575H950.00075z" /><glyph glyph-name="hammer-fill"
            unicode="&#xEDEE;"
            horiz-adv-x="1250" d="M887.5 645V945H1037.5C1065.115 945 1087.5 922.614 1087.5 895V695C1087.5 667.386 1065.115 645 1037.5 645H887.5zM787.5 -55C787.5 -82.615 765.115 -105 737.5 -105H537.5C509.886 -105 487.5 -82.615 487.5 -55V645H162.5V741.2815C162.5 759.065 171.9455 775.51 187.3065 784.4705L462.5 945H787.5V-55z" /><glyph glyph-name="admin-fill"
            unicode="&#xEA14;"
            horiz-adv-x="1250" d="M575 295V-105H175C175 115.915 354.086 295 575 295zM575 345C409.25 345 275 479.25 275 645C275 810.75 409.25 945 575 945C740.75 945 875 810.75 875 645C875 479.25 740.75 345 575 345zM1025 145H1075V-105H675V145H725V195C725 277.8450000000001 792.155 345 875 345C957.845 345 1025 277.8450000000001 1025 195V145zM925 145V195C925 222.615 902.6149999999998 245 875 245C847.3850000000001 245 825 222.615 825 195V145H925z" /><glyph glyph-name="file-transfer-fill"
            unicode="&#xED10;"
            horiz-adv-x="1250" d="M825 920L1075 670V-30.4099999999999C1075 -57.7999999999999 1052.7549999999999 -80 1025.33 -80H224.67C197.238 -80 175 -57.2349999999999 175 -30.4099999999999V870.41C175 897.7975 197.2475 920 224.67 920H825zM625 470H425V370H625V220L825 420L625 620V470z" /><glyph glyph-name="file-forbid-fill"
            unicode="&#xECE1;"
            horiz-adv-x="1250" d="M1025 461.3199999999999C979.5349999999999 482.915 928.68 495 875 495C681.7 495 525 338.3 525 145C525 70.6399999999999 548.19 1.6900000000001 587.735 -55H174.67C147.238 -55 125 -32.2349999999999 125 -5.4099999999999V895.41C125 922.7975 147.2475 945 174.67 945H775L1025 695V461.3199999999999zM875 -105C736.93 -105 625 6.9300000000001 625 145C625 283.0700000000001 736.93 395 875 395C1013.07 395 1125 283.0700000000001 1125 145C1125 6.9300000000001 1013.07 -105 875 -105zM810.33 9.6200000000001C829.91 0.25 851.8449999999999 -5 875 -5C957.845 -5 1025 62.155 1025 145C1025 168.1550000000001 1019.75 190.09 1010.3799999999998 209.67L810.33 9.6200000000001zM739.62 80.33L939.67 280.38C920.09 289.75 898.1550000000001 295 875 295C792.155 295 725 227.8450000000001 725 145C725 121.8449999999999 730.25 99.91 739.62 80.33z" /><glyph glyph-name="file-add-fill"
            unicode="&#xECC8;"
            horiz-adv-x="1250" d="M825 920L1075 670V-30.4099999999999C1075 -57.7999999999999 1052.7549999999999 -80 1025.33 -80H224.67C197.238 -80 175 -57.2349999999999 175 -30.4099999999999V870.41C175 897.7975 197.2475 920 224.67 920H825zM575 470H425V370H575V220H675V370H825V470H675V620H575V470z" /><glyph glyph-name="mastodon-fill"
            unicode="&#xEF23;"
            horiz-adv-x="1250" d="M1071.5351673925202 320.5101941389121C1057.8201673925203 249.970194138912 948.7251673925202 172.7701941389121 823.4301673925204 157.805194138912C758.0951673925204 150.0101941389121 693.7651673925204 142.8451941389121 625.1651673925203 145.9901941389121C512.9851673925203 151.130194138912 424.4646673925203 172.7701941389121 424.4646673925203 172.7701941389121C424.4646673925203 161.8501941389121 425.1381673925203 151.4501941389121 426.4851673925203 141.7251941389121C441.0696673925204 31.0151941389122 536.2651673925204 24.3801941389119 626.4401673925204 21.290194138912C717.4551673925203 18.175194138912 798.4951673925204 43.730194138912 798.4951673925204 43.730194138912L802.2351673925202 -38.554805861088C802.2351673925202 -38.554805861088 738.5751673925204 -72.7398058610879 625.1651673925203 -79.0248058610878C562.6301673925204 -82.4648058610878 484.9846673925203 -77.4548058610881 394.5466673925204 -53.514805861088C198.4021673925204 -1.5998058610878 164.6696673925203 207.4801941389121 159.5081673925203 419.6301941389121C157.9346673925204 482.6151941389121 158.9046673925203 542.009694138912 158.9046673925203 591.6841941389121C158.9046673925203 808.6146941389121 301.0376673925203 872.2006941389121 301.0376673925203 872.2006941389121C372.7051673925203 905.1141941389122 495.6791673925204 918.9551941389122 623.5251673925204 920.000194138912H626.6651673925203C754.5101673925203 918.9551941389122 877.5651673925202 905.1141941389122 949.2251673925203 872.2006941389121C949.2251673925203 872.2006941389121 1091.3551673925201 808.6146941389121 1091.3551673925201 591.6841941389121C1091.3551673925201 591.6841941389121 1093.1401673925204 431.6301941389121 1071.5351673925202 320.5101941389121zM923.7051673925204 574.8551941389121C923.7051673925204 628.5381941389121 910.0351673925202 671.1981941389121 882.5851673925204 702.7591941389121C854.2701673925203 734.3206941389121 817.1901673925204 750.4996941389121 771.1701673925204 750.4996941389121C717.9101673925204 750.4996941389121 677.5851673925204 730.0316941389121 650.9251673925203 689.0906941389121L625.0001673925203 645.6386941389121L599.0801673925203 689.0906941389121C572.4151673925203 730.0316941389121 532.0901673925202 750.4996941389121 478.8371673925203 750.4996941389121C432.8101673925204 750.4996941389121 395.7321673925203 734.3206941389121 367.4196673925204 702.7591941389121C339.9636673925204 671.1981941389121 326.2951673925204 628.5381941389121 326.2951673925204 574.8551941389121V312.1901941389121H430.3586673925203V567.1346941389122C430.3586673925203 620.877194138912 452.9711673925203 648.1551941389121 498.2006673925203 648.1551941389121C548.2101673925204 648.1551941389121 573.2801673925203 615.7961941389121 573.2801673925203 551.8121941389121V412.2651941389121H676.7301673925203V551.8121941389121C676.7301673925203 615.7961941389121 701.7901673925203 648.1551941389121 751.8001673925203 648.1551941389121C797.0301673925203 648.1551941389121 819.6401673925202 620.877194138912 819.6401673925202 567.1346941389122V312.1901941389121H923.7051673925204V574.8551941389121z" /><glyph glyph-name="telegram-fill"
            unicode="&#xF1EF;"
            horiz-adv-x="1250" d="M1125 420C1125 143.86 901.14 -80 625 -80C348.8575 -80 125 143.86 125 420C125 696.1424999999999 348.8575 920 625 920C901.14 920 1125 696.1424999999999 1125 420zM642.92 550.877C594.285 530.649 497.09 488.78 351.33 425.275C327.6605 415.865 315.262 406.655 314.133 397.655C312.2255 382.435 331.2805 376.445 357.2290000000001 368.285C360.7585 367.175 364.416 366.025 368.165 364.8050000000001C393.694 356.51 428.0355 346.8 445.888 346.415C462.082 346.0650000000001 480.1565 352.74 500.111 366.4450000000001C636.3000000000001 458.375 706.6 504.84 711.015 505.8399999999999C714.13 506.55 718.445 507.4349999999999 721.365 504.84C724.29 502.24 724 497.3200000000001 723.695 496C721.805 487.95 647.005 418.41 608.3000000000001 382.425C596.755 371.695 585.505 360.735 574.165 349.805C550.45 326.945 532.665 309.8 575.15 281.8000000000001C618.22 253.415 661.615 225.09 703.62 195.145C724.335 180.375 742.95 167.105 765.9399999999999 169.22C779.305 170.4500000000001 793.105 183.0150000000001 800.11 220.485C816.6750000000001 309.035 849.235 500.895 856.7600000000001 579.9585C857.42 586.885 856.5899999999999 595.75 855.9250000000001 599.6415C855.26 603.533 853.865 609.078 848.81 613.1825C842.815 618.0435 833.5699999999999 619.0685000000001 829.435 618.9955C810.625 618.664 781.775 608.6315 642.92 550.877z" /><glyph glyph-name="cloud-fill"
            unicode="&#xEB9C;"
            horiz-adv-x="1250" d="M875 645C703.525 645 557.245 537.098 500.367 385.485L594.025 350.365C636.6850000000001 464.075 746.39 545 875 545C909.915 545 943.435 539.0360000000001 974.6 528.0715C1091.325 487 1175 375.77 1175 245C1175 79.3149999999999 1040.685 -55 875 -55H375C209.3145 -55 75 79.3149999999999 75 245C75 375.77 158.673 487 275.4020000000001 528.0715C275.135 533.6804999999999 275 539.3245 275 545C275 738.2995000000001 431.7005 895 625 895C787.1 895 923.465 784.8005 963.26 635.2305C934.8649999999998 641.625 905.325 645 875 645z" /><glyph glyph-name="twitter-x-fill"
            unicode="&#xF3E6;"
            horiz-adv-x="1250" d="M909.3255 866.875L659.4905 581.2874999999999L443.478 866.875H130.6195L504.436 378.0650000000001L150.1445 -26.875H301.8530000000001L575.2955000000001 285.5700000000001L814.2705000000001 -26.875H1119.3805L729.7055 488.29L1060.9455 866.875H909.3255zM856.1155000000001 63.8750000000001L307.6735 780.8915H397.8280000000001L940.1255 63.8750000000001H856.1155000000001z" /><glyph glyph-name="search-line"
            unicode="&#xF0D1;"
            horiz-adv-x="1250" d="M918.7075 197.0025L1132.8425 -17.1324999999999L1062.1325 -87.8425L847.9975000000001 126.2925C771.0025 64.6924999999999 673.3575000000001 27.8425 567.1575 27.8425C318.7575000000001 27.8425 117.1575 229.4425 117.1575 477.8425C117.1575 726.2425 318.7575000000001 927.8425 567.1575 927.8425C815.5575 927.8425 1017.1575 726.2425 1017.1575 477.8425C1017.1575 371.6425 980.3075000000002 273.9975 918.7075 197.0025zM818.3925 234.1025C879.5324999999999 297.1125 917.1575 383.0625 917.1575 477.8425C917.1575 671.2175 760.5325 827.8425 567.1575 827.8425C373.7825000000001 827.8425 217.1575 671.2175 217.1575 477.8425C217.1575 284.4675 373.7825000000001 127.8425 567.1575 127.8425C661.9375 127.8425 747.8875 165.4675000000001 810.8975 226.6075L818.3925 234.1025z" /><glyph glyph-name="home-2-line"
            unicode="&#xEE19;"
            horiz-adv-x="1250" d="M975 -71.2140625000001H275C247.386 -71.2140625000001 225 -48.8290625000001 225 -21.2140625000001V428.7859375L75 428.7859375L591.365 898.2109374999999C610.4350000000001 915.5484375 639.5649999999999 915.5484375 658.635 898.2109374999999L1175 428.7859375L1025 428.7859375V-21.2140625000001C1025 -48.8290625000001 1002.6149999999998 -71.2140625000001 975 -71.2140625000001zM325 28.7859374999999H925V520.9134374999999L625 793.6409375L325 520.9134374999999V28.7859374999999z" /><glyph glyph-name="rss-fill"
            unicode="&#xF09E;"
            horiz-adv-x="1250" d="M175 870C672.0550000000001 870 1075 467.0550000000001 1075 -30H925C925 384.2150000000001 589.215 720 175 720V870zM175 520C478.7565 520 725 273.755 725 -30H575C575 190.915 395.914 370 175 370V520zM175 170C285.457 170 375 80.4549999999999 375 -30H175V170z" /><glyph glyph-name="treasure-map-fill"
            unicode="&#xF22A;"
            horiz-adv-x="1250" d="M125 770L475 920L775 770L1090.15 905.065C1102.845 910.504 1117.54 904.6255 1122.98 891.9345C1124.31 888.8225 1125 885.472 1125 882.0865V70L775 -80L475 70L159.848 -65.065C147.157 -70.5049999999999 132.4605 -64.625 127.0215 -51.9349999999999C125.6875 -48.825 125 -45.47 125 -42.085V770zM325 470V370H425V470H325zM525 470V370H625V470H525zM825 473.0350000000001L763.13 534.905L710.095 481.87L771.9649999999999 420L710.095 358.13L763.13 305.0950000000001L825 366.9649999999999L886.87 305.0950000000001L939.905 358.13L878.0350000000001 420L939.905 481.87L886.87 534.905L825 473.0350000000001z" /><glyph glyph-name="code-s-slash-fill"
            unicode="&#xEBAC;"
            horiz-adv-x="1250" d="M1225 420L942.155 137.155L871.4449999999999 207.87L1083.5800000000002 420L871.4449999999999 632.1320000000001L942.155 702.8425L1225 420zM166.4215 420L378.5535 207.87L307.8425000000001 137.155L25 420L307.8425000000001 702.8425L378.5535 632.1320000000001L166.4215 420zM514.4224999999999 -30H408.0045L735.58 870H841.995L514.4224999999999 -30z" /><glyph glyph-name="bluesky-fill"
            unicode="&#xF499;"
            horiz-adv-x="1250" d="M625 470.0184309708478C579.71 558.1019309708479 456.4165 722.2269309708479 341.75 803.1434309708478C231.9165 880.6854309708478 190.0415 867.2684309708479 162.5835 854.810430970848C130.7915 840.5184309708478 125 791.685430970848 125 763.0189309708479C125 734.2689309708479 140.75 527.6034309708479 151 493.0584309708479C184.9585 379.0584309708479 305.7085 340.5584309708479 416.9585 352.893430970848C253.9585 328.7284309708479 109.1665 269.3534309708479 299.0415 57.9784309708479C507.9165 -158.2715690291521 585.29 104.353430970848 625 237.4784309708479C664.71 104.353430970848 710.415 -148.8165690291522 947.21 57.9784309708479C1125 237.4784309708479 996.04 328.7284309708479 833.04 352.893430970848C944.29 340.5184309708478 1065.04 379.0584309708479 1099 493.0584309708479C1109.25 527.5584309708479 1125 734.3104309708478 1125 762.9769309708479C1125 791.7269309708479 1119.21 840.5189309708479 1087.415 854.8934309708478C1059.96 867.310430970848 1018.085 880.7269309708479 908.25 803.2269309708479C793.585 722.185430970848 670.29 558.0604309708478 625 470.0184309708478z" /><glyph glyph-name="sun-line"
            unicode="&#xF1BF;"
            horiz-adv-x="1250" d="M625 120C459.3145 120 325 254.315 325 420C325 585.6855 459.3145 720 625 720C790.6850000000001 720 925 585.6855 925 420C925 254.315 790.6850000000001 120 625 120zM625 220C735.4549999999999 220 825 309.5450000000001 825 420C825 530.457 735.4549999999999 620 625 620C514.543 620 425 530.457 425 420C425 309.5450000000001 514.543 220 625 220zM575 970H675V820H575V970zM575 20H675V-130H575V20zM200.736 773.5535L271.4465 844.264L377.5125 738.198L306.802 667.4875L200.736 773.5535zM872.485 101.8L943.2 172.515L1049.2649999999999 66.4449999999999L978.555 -4.2649999999999L872.485 101.8zM978.555 844.264L1049.2649999999999 773.5535L943.2 667.4875L872.485 738.198L978.555 844.264zM306.802 172.515L377.5125 101.8L271.4465 -4.2649999999999L200.736 66.4449999999999L306.802 172.515zM1175 470V370H1025V470H1175zM225 470V370H75V470H225z" /><glyph glyph-name="sun-fill"
            unicode="&#xF1BC;"
            horiz-adv-x="1250" d="M625 120C459.3145 120 325 254.315 325 420C325 585.6855 459.3145 720 625 720C790.6850000000001 720 925 585.6855 925 420C925 254.315 790.6850000000001 120 625 120zM575 970H675V820H575V970zM575 20H675V-130H575V20zM200.736 773.5535L271.4465 844.264L377.5125 738.198L306.802 667.4875L200.736 773.5535zM872.485 101.8L943.2 172.515L1049.2649999999999 66.4449999999999L978.555 -4.2649999999999L872.485 101.8zM978.555 844.264L1049.2649999999999 773.5535L943.2 667.4875L872.485 738.198L978.555 844.264zM306.802 172.515L377.5125 101.8L271.4465 -4.2649999999999L200.736 66.4449999999999L306.802 172.515zM1175 470V370H1025V470H1175zM225 470V370H75V470H225z" /><glyph glyph-name="moon-line"
            unicode="&#xEF75;"
            horiz-adv-x="1250" d="M525 670C525 476.7 681.7 320 875 320C972.92 320 1061.45 360.2150000000001 1124.9750000000001 425.025C1125 423.35 1125 421.675 1125 420C1125 143.86 901.14 -80 625 -80C348.8575 -80 125 143.86 125 420C125 696.1424999999999 348.8575 920 625 920C626.675 920 628.35 920 630.025 919.9755C565.215 856.451 525 767.9214999999999 525 670zM225 420C225 199.085 404.086 20 625 20C777.915 20 910.79 105.8050000000001 978.1 231.895C944.725 224.0650000000001 910.175 220 875 220C626.47 220 425 421.4700000000001 425 670C425 705.1759999999999 429.0665 739.7265 436.895 773.1C310.8055 705.7885 225 572.915 225 420z" /><glyph glyph-name="moon-fill"
            unicode="&#xEF72;"
            horiz-adv-x="1250" d="M594.5074999999999 919.5285C521.259 851.0875 475.4725 753.6265 475.4725 645.472C475.4725 438.3665 643.3675 270.4715 850.4725 270.4715C958.6275 270.4715 1056.0875 316.2565 1124.5275000000001 389.5065C1108.5375 127.7865000000001 891.2175000000001 -79.5285 625.4725 -79.5285C349.33 -79.5285 125.4725 144.3315 125.4725 420.4715C125.4725 686.2144999999999 332.7869999999999 903.537 594.5074999999999 919.5285z" /><glyph glyph-name="computer-line"
            unicode="&#xEBCA;"
            horiz-adv-x="1250" d="M225 245H1025V795H225V245zM675 145V45H875V-55H375V45H575V145H174.59C147.2025 145 125 167.4449999999999 125 195.375V844.626C125 872.4465 147.7655 895 174.59 895H1075.4099999999999C1102.8 895 1125 872.554 1125 844.626V195.375C1125 167.5550000000001 1102.235 145 1075.4099999999999 145H675z" /><glyph glyph-name="computer-fill"
            unicode="&#xEBC9;"
            horiz-adv-x="1250" d="M675 145V45H875V-55H375V45H575V145H174.59C147.2025 145 125 167.4449999999999 125 195.375V844.626C125 872.4465 147.7655 895 174.59 895H1075.4099999999999C1102.8 895 1125 872.554 1125 844.626V195.375C1125 167.5550000000001 1102.235 145 1075.4099999999999 145H675z" /></font>
</defs>
</svg>
